<?xml version="1.0" standalone="no"?>
<!DOCTYPE svg PUBLIC "-//W3C//DTD SVG 20010904//EN"
 "http://www.w3.org/TR/2001/REC-SVG-20010904/DTD/svg10.dtd">
<svg version="1.0" xmlns="http://www.w3.org/2000/svg"
 width="1078.000000pt" height="184.000000pt" viewBox="0 0 1078.000000 184.000000"
 preserveAspectRatio="xMidYMid meet">

<g transform="translate(0.000000,184.000000) scale(0.100000,-0.100000)"
fill="#000000" stroke="none">
<path d="M425 1548 c-7 -20 -275 -1052 -275 -1060 0 -5 81 -8 180 -8 l179 0
10 37 c6 21 11 43 11 48 0 6 5 27 11 48 l10 37 143 0 143 0 19 -85 19 -85 183
0 c170 0 183 1 178 18 -3 9 -62 235 -131 502 -69 267 -130 502 -136 523 l-10
37 -265 0 c-203 0 -266 -3 -269 -12z m312 -464 c17 -76 32 -142 32 -146 1 -5
-33 -8 -74 -8 -53 0 -75 4 -75 13 0 36 65 287 74 284 6 -2 25 -66 43 -143z"/>
<path d="M1310 1020 l0 -540 345 0 345 0 0 140 0 140 -175 0 -175 0 0 400 0
400 -170 0 -170 0 0 -540z"/>
<path d="M2090 1020 l0 -540 345 0 345 0 0 140 0 140 -170 0 -170 0 0 400 0
400 -175 0 -175 0 0 -540z"/>
<path d="M4610 1021 l0 -541 170 0 170 0 0 161 0 160 41 -3 42 -3 68 -155 68
-155 191 -3 191 -2 -93 179 -93 179 28 23 c51 40 77 73 100 129 19 47 22 74
22 190 0 133 -1 137 -33 203 -24 47 -47 77 -79 102 -84 64 -111 68 -470 73
l-323 3 0 -540z m507 253 c28 -5 38 -39 36 -114 -2 -76 -21 -90 -124 -90 l-79
0 0 104 0 105 38 3 c37 4 88 0 129 -8z"/>
<path d="M3426 1263 c-189 -490 -176 -448 -176 -550 l0 -93 220 0 220 0 0 -70
0 -70 145 0 145 0 0 70 0 70 45 0 45 0 0 125 0 125 -45 0 -45 0 0 255 0 255
-254 0 -254 0 -46 -117z m264 -248 l0 -145 -70 0 c-63 0 -69 2 -62 18 46 114
118 272 124 272 4 0 8 -65 8 -145z"/>
<path d="M7205 1359 c-66 -11 -162 -46 -205 -75 -19 -13 -39 -24 -45 -24 -6 0
-29 18 -50 40 l-39 40 -88 0 -88 0 0 -430 0 -430 175 0 175 0 0 284 c0 234 3
287 14 299 16 15 129 32 146 22 6 -4 10 -119 10 -306 l0 -299 176 0 175 0 -3
373 c-3 418 -2 411 -79 466 -63 47 -156 60 -274 40z"/>
<path d="M8235 1360 c-65 -12 -161 -47 -207 -76 -21 -13 -41 -24 -46 -24 -4 0
-26 18 -47 40 l-39 40 -88 0 -88 0 0 -430 0 -430 175 0 175 0 0 284 c0 308 1
316 54 316 13 0 44 3 70 6 l46 7 0 -307 0 -306 176 0 175 0 -3 373 c-3 330 -5
376 -20 404 -21 37 -59 69 -108 90 -43 18 -158 25 -225 13z"/>
<path d="M9053 1359 c-137 -23 -231 -87 -282 -192 -90 -184 -55 -501 66 -608
83 -73 177 -99 352 -99 114 0 346 31 362 48 6 6 -27 241 -35 249 -1 2 -21 -3
-43 -11 -62 -22 -173 -36 -282 -36 l-101 0 0 29 c0 33 4 34 165 46 130 9 233
44 282 97 51 55 72 157 53 266 -15 91 -49 141 -122 175 -86 42 -280 59 -415
36z m227 -292 c0 -73 -16 -87 -114 -94 l-76 -6 0 54 c0 30 4 59 8 66 13 20 54
32 120 32 l62 1 0 -53z"/>
<path d="M10190 1351 c-65 -21 -113 -44 -158 -79 l-33 -25 -47 46 -48 47 -87
0 -87 0 0 -430 0 -430 175 0 175 0 2 253 3 252 44 22 c25 13 67 26 94 29 l49
7 -7 156 c-4 86 -10 159 -13 163 -4 3 -32 -2 -62 -11z"/>
<path d="M5660 1002 c0 -382 4 -413 65 -474 53 -53 122 -71 248 -66 116 5 169
23 234 81 l40 36 48 -49 49 -50 88 0 88 0 0 430 0 430 -176 0 -177 0 7 -275
c10 -359 12 -353 -114 -358 l-55 -2 -3 318 -2 317 -170 0 -170 0 0 -338z"/>
</g>
</svg>
