<?xml version="1.0" standalone="no"?>
<!DOCTYPE svg PUBLIC "-//W3C//DTD SVG 20010904//EN"
 "http://www.w3.org/TR/2001/REC-SVG-20010904/DTD/svg10.dtd">
<svg version="1.0" xmlns="http://www.w3.org/2000/svg"
 width="800.000000pt" height="815.000000pt" viewBox="0 0 800.000000 815.000000"
 preserveAspectRatio="xMidYMid meet">

<g transform="translate(0.000000,815.000000) scale(0.100000,-0.100000)"
fill="#000000" stroke="none">
<path d="M3495 8000 c-260 -19 -622 -106 -925 -222 -140 -53 -387 -176 -529
-262 -682 -413 -1212 -1074 -1466 -1830 -154 -456 -218 -1017 -165 -1435 11
-82 10 -84 -12 -99 -125 -87 -242 -263 -317 -477 -101 -291 -102 -731 0 -976
92 -225 236 -365 394 -384 54 -7 70 -20 40 -31 -9 -4 -27 -27 -42 -51 -22 -39
-26 -57 -27 -133 -1 -83 1 -90 30 -132 17 -23 53 -56 79 -73 44 -27 57 -30
151 -33 99 -4 106 -2 175 29 55 26 81 45 116 88 77 94 135 239 148 366 4 39 9
73 11 77 3 4 45 -39 94 -96 333 -386 840 -740 1319 -922 275 -105 518 -168
796 -206 232 -32 678 -32 910 0 532 73 1020 260 1470 562 144 96 367 282 500
415 321 322 595 737 751 1136 l37 97 57 5 c67 6 114 26 166 71 l37 32 51 -26
c130 -64 359 3 444 130 12 19 30 44 39 54 44 54 115 157 142 210 24 44 31 71
31 113 0 49 -4 59 -34 89 -30 30 -40 34 -89 34 -48 0 -62 -5 -101 -35 l-46
-35 -9 23 c-31 82 -34 106 -18 144 73 170 19 317 -121 331 -122 11 -177 -40
-257 -243 -32 -80 -61 -145 -65 -145 -12 0 -21 108 -18 215 7 236 -1 446 -27
647 -14 111 -30 221 -35 243 -6 22 -19 81 -30 130 -25 108 -109 368 -157 485
-85 204 -255 520 -351 650 -19 25 -57 77 -85 116 -212 291 -566 620 -892 829
-414 265 -854 426 -1405 515 -87 14 -614 21 -765 10z m640 -50 c143 -10 387
-54 565 -101 121 -32 318 -96 335 -109 6 -4 28 -13 50 -20 59 -19 308 -140
398 -193 43 -26 81 -47 84 -47 15 0 256 -170 368 -261 378 -301 682 -678 907
-1124 31 -60 69 -144 86 -185 48 -117 102 -259 102 -267 0 -4 13 -50 29 -103
43 -139 79 -302 96 -431 8 -63 20 -154 27 -204 13 -98 17 -509 6 -520 -4 -4
-22 5 -40 20 -71 60 -154 79 -240 55 -46 -13 -115 -65 -144 -108 -18 -26 -24
-29 -33 -18 -9 11 -5 21 19 47 42 46 64 125 57 206 -7 87 -40 149 -101 191
-41 27 -57 32 -107 32 -57 0 -59 1 -59 26 0 14 -9 85 -20 157 -51 328 -168
670 -320 933 -63 109 -187 299 -212 325 -7 8 -47 54 -87 103 -224 269 -535
514 -852 672 -169 84 -219 104 -370 153 -273 87 -411 114 -676 132 -187 13
-459 3 -608 -22 -202 -34 -501 -122 -665 -196 -190 -86 -427 -223 -540 -313
-19 -15 -71 -56 -115 -91 -116 -92 -276 -256 -386 -394 -390 -489 -598 -1080
-599 -1700 0 -308 45 -587 141 -873 12 -35 20 -64 18 -66 -2 -1 -26 -11 -53
-21 -91 -33 -164 -134 -203 -279 -16 -60 -20 -66 -38 -60 -47 15 -171 16 -208
1 -34 -15 -38 -15 -46 1 -31 59 -131 356 -145 430 -7 40 12 73 61 103 50 31
58 18 55 -91 -3 -115 8 -156 59 -213 54 -62 101 -77 164 -53 48 19 82 56 110
121 14 31 18 68 18 165 0 109 -4 135 -27 199 -50 142 -106 215 -202 262 -59
29 -70 31 -141 27 -51 -3 -97 -13 -131 -28 -29 -12 -54 -21 -56 -19 -9 10 -26
272 -26 392 0 423 109 951 271 1317 265 600 641 1065 1160 1436 53 38 110 76
125 86 16 9 67 40 114 68 166 102 439 227 635 292 222 73 558 144 740 157 157
11 498 12 650 1z m-271 -1050 c3 -25 20 -126 36 -225 17 -99 38 -223 46 -275
9 -52 18 -105 21 -118 5 -23 4 -23 -68 -20 l-74 3 -1 430 -2 430 18 -90 c10
-49 20 -110 24 -135z m251 -699 c281 -47 599 -198 794 -378 l74 -69 -186 -184
c-103 -102 -191 -186 -195 -187 -4 -2 -43 26 -87 62 -181 146 -389 221 -642
232 -93 4 -144 1 -220 -13 -54 -10 -102 -18 -108 -18 -35 -3 -185 -64 -255
-104 l-84 -48 -80 55 c-45 30 -85 59 -91 63 -5 5 -71 51 -145 103 -74 53 -136
99 -138 104 -6 19 193 158 317 221 200 102 366 149 641 184 69 9 288 -4 405
-23z m-1535 -317 c52 -36 136 -94 185 -130 50 -35 142 -100 205 -144 63 -45
162 -114 220 -155 58 -41 140 -98 183 -126 42 -29 77 -57 77 -63 0 -30 -44
-243 -53 -253 -5 -7 -20 -13 -32 -13 -13 0 -67 -9 -122 -20 l-98 -20 -23 27
c-12 16 -54 73 -92 128 -38 55 -100 145 -139 200 -39 55 -100 143 -136 195
-36 52 -97 140 -135 195 -114 161 -190 274 -190 280 0 4 12 -3 28 -14 15 -12
70 -51 122 -87z m2615 69 c-10 -16 -64 -93 -119 -173 -56 -80 -109 -156 -118
-170 -10 -14 -46 -65 -81 -115 -35 -49 -106 -151 -158 -225 -53 -74 -118 -169
-146 -210 -75 -112 -62 -107 -212 -80 l-129 23 -15 81 c-9 45 -18 106 -22 136
-5 55 -5 55 32 80 21 13 75 50 120 82 44 32 88 58 97 58 9 0 45 -27 82 -60 36
-33 69 -60 73 -60 3 0 105 99 226 220 l220 221 -35 29 c-23 19 -31 32 -25 38
6 5 51 37 102 70 50 34 94 66 98 72 3 5 11 10 17 10 6 0 2 -12 -7 -27z m-2494
-432 c144 -212 182 -267 200 -289 18 -23 18 -25 -5 -61 -36 -57 -87 -161 -106
-216 l-17 -50 -184 -36 c-101 -20 -220 -42 -264 -48 -44 -7 -90 -15 -102 -18
-21 -5 -23 -2 -23 33 0 36 8 70 54 234 19 69 58 164 103 254 39 78 156 256
204 310 l31 36 22 -28 c13 -15 52 -69 87 -121z m1327 109 l49 -11 26 -152 c50
-284 77 -452 77 -475 0 -13 -19 -45 -42 -73 l-43 -49 -77 0 -78 0 0 -89 0 -89
-45 -56 -45 -55 47 -3 c48 -3 48 -3 51 -42 5 -58 -9 -62 -60 -16 -25 22 -49
40 -52 40 -3 0 -6 -128 -6 -284 l0 -284 -42 10 c-63 14 -134 2 -213 -37 -38
-18 -72 -32 -74 -30 -14 15 -15 99 -1 208 l16 128 149 149 150 150 -163 0
-162 0 -35 49 c-19 26 -54 61 -77 77 -37 26 -50 29 -117 29 -92 0 -132 -21
-192 -101 l-40 -53 -852 6 c-819 5 -991 10 -852 27 33 4 143 23 245 41 102 18
205 36 230 40 25 3 122 19 215 35 94 16 242 41 330 55 88 14 239 39 335 55
424 72 591 99 673 111 l87 12 33 -29 c72 -65 206 -193 272 -259 l70 -70 2 510
c2 281 5 516 8 523 6 15 133 16 203 2z m2149 -599 c52 -24 105 -95 132 -179
17 -50 21 -88 21 -190 0 -71 -6 -152 -14 -184 l-13 -58 72 0 72 0 -18 53 c-24
68 -24 114 2 182 24 64 63 99 127 113 62 14 111 0 154 -46 81 -87 78 -243 -5
-324 l-38 -37 17 -33 c10 -18 19 -66 22 -107 l5 -74 22 60 c57 150 139 223
253 223 78 0 172 -72 210 -160 23 -54 22 -205 -2 -254 -34 -69 -111 -95 -177
-60 -17 8 -32 14 -34 12 -1 -2 1 -31 6 -65 10 -72 36 -143 53 -143 14 0 91 79
127 130 55 76 102 164 130 242 50 138 100 261 123 302 51 93 206 103 251 17
30 -58 30 -106 0 -196 l-29 -85 27 -82 c15 -46 27 -89 27 -95 0 -19 14 -16 41
10 75 68 90 77 135 77 72 0 108 -53 84 -124 -23 -70 -201 -321 -266 -374 -47
-39 -134 -72 -206 -79 -61 -6 -116 10 -170 49 l-28 20 -54 -49 c-60 -55 -107
-73 -192 -73 -72 0 -121 13 -166 44 l-34 23 -39 -34 c-52 -45 -131 -89 -174
-97 -49 -9 -106 10 -144 48 l-33 33 -45 -40 c-63 -57 -138 -97 -179 -97 -44 0
-108 29 -139 63 l-23 26 -62 -64 c-43 -45 -73 -66 -101 -74 -49 -13 -102 0
-143 34 l-29 24 -39 -40 c-66 -68 -153 -81 -236 -36 l-37 20 -33 -28 c-104
-88 -216 -85 -263 6 -20 37 -31 37 -38 0 -14 -67 -111 -131 -167 -109 -32 12
-58 35 -81 72 l-18 29 -15 -38 c-9 -20 -16 -41 -16 -45 0 -15 -50 -48 -80 -55
-45 -10 -87 3 -120 36 -27 27 -44 71 -64 162 -6 24 -11 27 -51 27 -55 0 -92
14 -127 47 -33 32 -31 36 -52 -126 -18 -143 -36 -186 -90 -214 -35 -19 -39
-19 -82 -2 -62 24 -89 68 -110 180 -26 146 -29 150 -43 71 -53 -300 -264 -417
-445 -247 -37 35 -38 35 -33 10 13 -55 18 -279 9 -375 -10 -102 -48 -210 -90
-257 -23 -26 -90 -57 -126 -57 -44 0 -109 43 -151 99 -43 60 -99 220 -116 332
-6 43 -14 79 -18 79 -3 0 -26 -7 -50 -16 -25 -8 -56 -12 -72 -9 -35 8 -85 64
-112 124 l-20 46 -19 -69 c-23 -85 -48 -121 -94 -136 -49 -17 -98 -5 -127 30
-21 25 -27 27 -37 15 -7 -8 -36 -30 -66 -50 -57 -38 -124 -53 -187 -41 -64 12
-118 88 -132 188 -4 26 -11 46 -15 43 -4 -2 -15 -33 -24 -68 -21 -77 -79 -162
-137 -203 -38 -26 -50 -29 -120 -29 -66 0 -82 3 -106 23 -61 48 -67 49 -119 3
-74 -65 -147 -96 -224 -96 -73 1 -116 17 -176 69 l-39 33 -1 -136 c-2 -371
-101 -610 -283 -687 -21 -9 -68 -14 -125 -14 -83 0 -96 3 -144 31 -78 44 -104
116 -82 224 17 83 51 115 120 115 28 0 67 -7 87 -15 69 -29 77 -22 108 101 8
34 15 67 15 73 0 6 -30 -4 -67 -23 -182 -91 -352 -69 -484 63 -118 119 -189
295 -220 543 -14 111 -6 330 16 438 8 41 18 87 20 102 21 113 109 307 191 420
55 74 144 150 227 192 70 36 83 39 160 39 73 1 89 -2 130 -26 50 -30 104 -90
134 -152 44 -88 57 -146 57 -265 1 -105 -1 -120 -25 -165 -27 -53 -77 -95
-114 -95 -34 0 -86 41 -109 85 -17 32 -21 60 -23 141 -2 101 -20 174 -43 174
-47 0 -122 -62 -176 -147 -93 -144 -138 -323 -138 -553 -1 -250 46 -422 124
-463 46 -24 136 -16 207 19 57 28 141 100 144 124 4 40 -2 47 -43 53 -81 11
-130 68 -136 160 -3 52 0 67 20 96 37 56 79 74 167 75 60 1 85 -4 119 -22 24
-12 47 -20 51 -17 5 2 11 30 14 62 11 118 78 245 156 294 38 24 55 29 111 29
56 0 73 -4 113 -30 29 -18 60 -50 79 -80 l30 -49 27 51 c97 189 292 239 484
124 l57 -35 16 37 c8 20 31 53 51 74 l35 36 -24 16 c-61 40 -93 163 -69 264
29 117 169 168 272 99 100 -67 99 -270 -1 -349 l-31 -25 21 -36 c15 -25 23
-61 27 -113 7 -83 17 -81 27 6 17 141 55 190 146 190 44 0 56 -4 79 -29 l26
-28 38 43 c76 87 159 78 227 -25 l35 -53 7 219 c8 247 18 338 53 476 50 199
131 297 244 297 91 0 164 -64 197 -172 46 -151 0 -532 -101 -843 -31 -95 -31
-99 3 -81 23 12 34 31 56 98 61 187 157 267 316 268 63 0 85 -5 139 -30 35
-17 76 -39 91 -50 l29 -20 11 54 c15 76 51 106 124 106 40 0 57 -5 71 -20 l18
-20 26 24 c38 34 65 46 108 46 60 0 100 -40 128 -125 l22 -70 8 70 c12 118 41
154 136 170 40 7 91 -13 107 -41 8 -15 16 -10 54 30 40 42 49 46 91 46 38 0
53 -6 82 -32 30 -26 38 -29 46 -17 5 8 9 17 9 20 0 17 55 58 85 63 53 10 122
-23 140 -68 18 -42 35 -184 35 -291 0 -90 13 -91 29 -1 15 82 67 221 106 281
66 105 180 174 241 146 34 -15 34 -16 34 29 0 60 40 100 116 115 l59 12 7 54
c4 30 14 117 22 194 25 227 80 355 169 396 52 23 52 23 104 0z m-698 -200 c22
-14 10 -349 -19 -521 -21 -123 -26 -141 -64 -200 -23 -36 -48 -78 -56 -95
l-13 -30 -8 47 c-15 94 -65 151 -152 172 -39 9 -107 -11 -138 -41 -26 -24 -28
-24 -59 -8 -17 9 -48 17 -69 17 l-38 0 24 65 c12 35 23 68 23 73 0 6 -178 10
-470 10 l-470 0 0 260 0 260 748 0 c414 0 753 -4 761 -9z m373 -246 c2 -3 2
-24 -1 -47 l-6 -43 -85 -12 c-47 -7 -118 -19 -157 -26 l-73 -14 0 74 0 73 158
0 c87 0 161 -2 164 -5z m-3402 -245 c85 -16 190 -34 232 -40 l77 -13 22 -66
c23 -70 79 -189 110 -232 18 -25 17 -26 -14 -72 -22 -32 -38 -46 -49 -43 -33
8 -103 -15 -140 -45 l-37 -29 -33 20 c-39 23 -85 26 -132 6 l-32 -13 13 51
c17 62 10 142 -17 204 -35 79 -83 113 -170 122 -52 5 -56 7 -66 40 -6 19 -14
61 -16 93 l-5 57 51 -6 c28 -3 121 -19 206 -34z m2054 -58 c5 -9 -220 -52
-270 -52 -31 0 -81 40 -67 53 9 10 331 9 337 -1z m26 -100 c14 -20 27 -40 28
-45 2 -4 -12 -25 -31 -46 -19 -21 -36 -44 -39 -51 -3 -9 -17 -4 -48 18 -32 24
-54 32 -85 32 -49 0 -102 -16 -129 -39 -17 -15 -18 -15 -13 4 3 11 9 42 13 68
4 27 13 51 21 54 11 4 205 37 248 42 6 0 21 -16 35 -37z m2580 -295 c0 -17
-56 -71 -63 -60 -2 4 -8 23 -12 41 -7 32 -7 32 34 32 27 0 41 -4 41 -13z
m-4190 -22 c0 -16 -6 -25 -15 -25 -16 0 -19 9 -9 34 9 25 24 19 24 -9z m-2367
-300 c19 -60 51 -154 71 -208 l37 -98 -25 -52 c-45 -90 -30 -192 38 -258 22
-22 57 -44 79 -50 l40 -10 -33 -34 c-72 -74 -210 -117 -264 -82 -62 41 -99
195 -99 417 0 199 25 334 85 458 11 24 24 40 28 35 5 -4 24 -57 43 -118z
m6312 -114 c3 -5 30 -17 60 -26 30 -8 55 -20 55 -25 0 -18 -122 -287 -183
-400 -235 -445 -607 -865 -1027 -1163 -346 -245 -761 -434 -1155 -527 -172
-40 -225 -50 -407 -71 -487 -57 -984 -6 -1458 151 -85 28 -168 57 -185 65
-309 137 -458 218 -674 368 -236 163 -468 374 -649 591 l-83 98 7 62 c4 33 7
62 8 63 1 1 22 -7 46 -19 33 -16 62 -22 119 -22 87 0 152 25 234 88 l47 36 42
-27 c38 -25 50 -28 134 -28 l92 -1 94 -89 c89 -85 308 -252 394 -300 21 -12
55 -33 75 -46 32 -22 241 -125 330 -163 143 -61 411 -138 569 -162 373 -58
567 -58 943 0 157 24 435 104 562 161 16 7 72 32 123 54 51 22 105 49 119 61
14 11 30 20 36 20 20 0 214 125 328 212 225 170 372 316 540 538 64 84 166
240 198 301 12 25 26 35 62 44 54 13 124 53 158 88 l23 26 37 -24 c98 -64 208
-49 325 44 41 33 51 37 61 22z m-2411 -151 c33 0 35 -2 45 -51 13 -60 25 -85
58 -120 l24 -26 -93 -41 c-183 -82 -379 -126 -619 -139 -124 -6 -154 3 -79 26
48 14 140 103 167 161 10 22 20 40 23 40 3 0 15 -22 28 -50 44 -95 147 -131
239 -81 41 22 70 89 83 191 15 127 12 122 54 105 20 -8 51 -15 70 -15z m-857
-353 c4 -7 0 -8 -11 -4 -10 4 -22 7 -27 7 -5 0 -9 4 -9 9 0 12 38 2 47 -12z
m226 -74 c9 -5 8 -721 -1 -783 -7 -45 -7 -44 -20 40 -8 47 -31 186 -52 310
-21 124 -47 276 -58 338 l-18 114 70 -7 c39 -4 74 -9 79 -12z m-3067 -545 c-3
-18 -10 -35 -14 -38 -4 -4 -29 1 -57 11 l-50 16 40 12 c22 6 47 15 55 21 26
17 33 11 26 -22z"/>
<path d="M3577 7753 c-9 -27 -17 -56 -17 -65 0 -10 -3 -18 -7 -18 -10 0 -63
83 -63 99 0 6 -18 11 -46 11 l-45 0 35 -62 c70 -124 85 -162 91 -230 6 -59 9
-68 26 -68 11 0 29 5 40 10 17 10 18 18 13 79 -7 71 -2 95 42 208 13 34 24 66
24 72 0 6 -17 11 -38 11 -36 0 -39 -2 -55 -47z"/>
<path d="M4198 7766 c-48 -17 -74 -48 -93 -110 -29 -96 -17 -163 40 -216 21
-20 39 -25 94 -28 64 -4 70 -2 98 24 83 79 85 259 3 315 -35 24 -98 30 -142
15z m111 -82 c34 -43 23 -146 -19 -192 -47 -50 -120 -9 -120 67 0 51 18 109
41 132 28 28 73 25 98 -7z"/>
<path d="M3135 7729 c-38 -10 -79 -19 -91 -19 -33 0 -55 -22 -47 -48 5 -21 11
-23 52 -20 l45 3 28 -105 c15 -58 27 -117 28 -131 0 -15 6 -31 13 -37 16 -13
67 -3 67 13 0 14 -47 239 -55 266 -4 13 5 19 41 28 41 10 45 14 40 34 -3 12
-6 25 -6 30 0 11 -39 7 -115 -14z"/>
<path d="M4611 7678 c-5 -13 -18 -54 -29 -93 -46 -154 -65 -226 -60 -230 2 -3
19 -8 36 -11 22 -5 33 -2 36 7 3 8 12 40 21 73 18 65 11 62 107 40 23 -5 28
-2 34 21 8 32 -2 40 -59 49 -39 7 -39 7 -34 43 4 19 8 37 9 38 2 2 36 -6 76
-17 41 -11 75 -18 77 -16 2 2 6 15 10 29 6 25 4 27 -93 57 -55 18 -105 32
-111 32 -6 0 -15 -10 -20 -22z"/>
<path d="M2768 7627 c-16 -6 -28 -16 -28 -21 0 -6 23 -76 51 -156 28 -80 53
-153 56 -162 6 -21 3 -21 42 -7 17 6 31 16 31 22 0 18 -114 337 -120 336 -3
-1 -17 -6 -32 -12z"/>
<path d="M2415 7480 c-76 -37 -96 -110 -46 -161 28 -27 34 -29 113 -29 86 0
108 -8 108 -40 0 -9 -9 -25 -20 -35 -19 -17 -41 -17 -95 -1 -14 4 -25 -1 -38
-19 -18 -25 -18 -25 15 -45 87 -55 237 34 214 126 -4 15 -20 39 -36 55 -27 28
-33 29 -119 29 -93 0 -107 6 -96 40 8 24 48 36 78 23 16 -7 28 -6 45 5 30 20
28 39 -8 57 -39 20 -67 19 -115 -5z"/>
<path d="M5239 7391 c-16 -17 -29 -40 -29 -54 0 -14 22 -58 50 -99 27 -40 50
-79 50 -86 0 -7 -11 -17 -25 -24 -33 -15 -71 11 -83 54 -6 26 -15 34 -40 39
-31 6 -32 5 -32 -25 0 -105 141 -176 219 -110 26 21 31 33 31 68 0 35 -8 53
-46 104 -49 65 -53 95 -16 100 29 4 62 -24 62 -53 0 -15 8 -25 23 -29 39 -10
47 -7 47 22 -1 66 -63 122 -137 122 -36 0 -50 -6 -74 -29z"/>
<path d="M2079 7280 c-14 -4 -58 -30 -97 -57 l-70 -49 97 -142 c53 -77 99
-144 103 -147 6 -6 23 1 57 24 12 8 7 20 -28 65 -36 46 -41 59 -31 71 18 22
32 19 100 -22 61 -36 62 -36 96 -20 19 9 34 20 34 25 0 5 -31 26 -69 48 l-70
39 6 42 c7 50 -11 84 -60 113 -18 11 -34 20 -37 19 -3 0 -17 -4 -31 -9z m46
-94 c20 -29 13 -45 -30 -73 l-34 -22 -20 33 c-12 18 -21 36 -21 40 0 9 62 46
77 46 7 0 19 -11 28 -24z"/>
<path d="M5607 7137 c-94 -121 -147 -195 -147 -205 0 -7 161 -131 183 -141 9
-4 47 28 47 40 0 4 -29 28 -65 54 -36 25 -65 49 -65 54 0 4 10 21 23 39 l23
31 49 -35 49 -35 18 23 c10 13 18 25 18 28 0 3 -21 19 -45 35 -25 17 -45 35
-45 41 0 6 11 21 24 33 l24 22 56 -45 c31 -25 63 -46 71 -46 14 0 43 46 34 54
-2 2 -45 33 -96 69 l-92 67 -64 -83z"/>
<path d="M1658 6960 l-88 -79 116 -128 c63 -70 120 -130 125 -131 9 -4 40 21
142 116 l49 45 -26 26 -26 25 -60 -59 -60 -59 -31 30 -30 31 40 43 c38 41 39
44 24 66 -8 13 -18 24 -21 24 -3 0 -23 -17 -44 -37 -31 -30 -42 -35 -55 -27
-42 26 -39 40 23 97 59 55 59 55 40 76 -11 12 -22 21 -25 21 -3 0 -45 -36 -93
-80z"/>
<path d="M5919 6860 c-60 -39 -110 -111 -116 -164 -4 -32 1 -49 19 -76 58 -86
141 -104 221 -47 95 68 132 142 106 219 -31 96 -140 128 -230 68z m131 -45
c32 -16 45 -45 36 -79 -8 -31 -78 -100 -117 -116 -35 -15 -52 -9 -81 31 -15
20 -17 31 -9 52 16 41 101 118 139 126 2 1 16 -6 32 -14z"/>
<path d="M1416 6718 c-9 -12 -16 -26 -16 -30 0 -4 29 -48 65 -99 36 -51 63
-94 61 -96 -2 -3 -48 18 -101 46 -53 28 -102 51 -109 51 -14 0 -51 -48 -44
-56 3 -2 78 -38 169 -79 l164 -76 28 31 28 31 -21 27 c-11 15 -59 82 -106 150
-48 67 -90 122 -95 122 -4 0 -15 -10 -23 -22z"/>
<path d="M6236 6500 c-55 -39 -108 -82 -118 -97 -54 -82 23 -213 124 -213 31
0 60 15 150 76 62 42 115 78 118 81 8 8 -29 58 -43 57 -8 -1 -60 -34 -116 -73
-110 -78 -131 -83 -164 -39 -32 43 -18 68 80 137 137 94 129 86 109 116 -9 14
-22 25 -29 25 -6 -1 -57 -32 -111 -70z"/>
<path d="M1134 6349 c-8 -17 -12 -35 -7 -38 25 -22 281 -181 291 -181 6 0 18
13 26 29 l15 29 -149 96 c-82 53 -151 96 -154 96 -3 0 -13 -14 -22 -31z"/>
<path d="M6455 6090 c-88 -47 -149 -85 -147 -92 2 -7 24 -54 49 -105 l46 -92
29 15 c15 8 28 17 28 20 0 2 -14 32 -30 65 -17 33 -28 64 -25 69 3 4 58 36
123 70 64 34 118 63 120 65 5 5 -28 65 -36 65 -4 -1 -74 -36 -157 -80z"/>
<path d="M995 6120 c-8 -16 -15 -32 -15 -35 0 -3 44 -27 97 -53 l97 -47 -65
-7 c-35 -4 -94 -10 -130 -13 -58 -6 -68 -9 -78 -31 -6 -14 -11 -29 -11 -34 0
-6 71 -46 158 -89 l159 -80 17 35 16 35 -101 48 -101 49 39 5 c21 4 82 9 135
12 l97 7 10 30 c6 17 11 33 11 34 0 2 -72 40 -160 84 l-160 80 -15 -30z"/>
<path d="M799 5673 c-5 -13 -9 -30 -9 -37 0 -8 48 -28 118 -51 64 -20 123 -42
130 -47 22 -19 15 -75 -14 -97 -26 -21 -47 -18 -138 18 -16 6 -48 16 -71 21
-23 5 -49 12 -57 15 -12 5 -18 -2 -23 -24 -3 -17 -5 -34 -3 -38 4 -9 143 -56
215 -73 28 -6 62 -9 75 -5 85 26 128 157 73 223 -25 30 -64 47 -208 94 l-79
25 -9 -24z"/>
<path d="M6072 4947 c-56 -59 -99 -242 -110 -467 l-7 -155 -65 -11 c-113 -19
-131 -33 -111 -86 8 -23 16 -26 86 -31 42 -4 80 -9 85 -12 4 -3 11 -58 15
-122 4 -65 15 -162 26 -216 l19 -97 -34 -73 c-36 -78 -76 -127 -101 -127 -29
0 -38 54 -45 280 -8 272 -12 286 -82 282 -42 -3 -48 0 -68 28 -19 26 -27 30
-49 25 -84 -20 -162 -120 -211 -272 -23 -73 -31 -119 -36 -218 l-7 -125 -34
-35 c-19 -19 -40 -35 -48 -35 -34 0 -50 84 -65 352 -5 103 -14 198 -20 212 -5
14 -20 32 -34 41 -21 14 -29 15 -53 3 -29 -14 -47 -56 -121 -288 l-30 -95 -1
151 c-1 137 -3 154 -22 178 -28 35 -70 35 -98 -1 -20 -25 -35 -67 -95 -273
l-25 -85 0 61 c-1 93 -21 268 -32 279 -13 13 -81 7 -97 -9 -15 -14 -31 -159
-32 -277 0 -81 -9 -98 -60 -117 -61 -22 -81 23 -89 195 -5 109 -10 135 -25
152 -51 56 -119 1 -160 -129 -15 -45 -26 -88 -26 -97 0 -38 -10 0 -25 90 -20
124 -21 127 -56 127 -46 0 -61 -35 -67 -150 l-5 -100 -53 54 c-29 30 -81 71
-116 92 -52 31 -75 38 -130 42 -88 6 -128 -9 -192 -71 -52 -52 -80 -110 -101
-214 -11 -55 -81 -93 -176 -97 l-56 -3 43 131 c98 302 138 508 138 711 0 111
-3 137 -21 175 -29 62 -63 91 -115 97 -116 13 -193 -145 -233 -477 -15 -122
-19 -642 -6 -819 6 -93 5 -96 -22 -138 -23 -34 -35 -43 -57 -43 -43 0 -51 37
-59 295 -8 228 -15 270 -48 307 -23 25 -69 23 -98 -6 -22 -22 -58 -122 -70
-197 -11 -66 -39 -169 -45 -169 -4 0 -10 64 -14 142 -4 82 -13 155 -21 175
-12 29 -19 33 -49 33 -55 0 -70 -31 -74 -154 -2 -56 1 -164 5 -240 l8 -140
-47 -67 c-49 -70 -94 -112 -112 -106 -35 11 -46 213 -25 477 13 165 7 190 -46
190 -74 0 -113 -67 -115 -196 l0 -52 -58 57 c-67 65 -161 118 -225 127 -60 8
-137 -11 -186 -47 -29 -20 -51 -50 -78 -106 l-38 -78 -2 -169 -1 -170 -69 -67
c-80 -78 -137 -102 -178 -75 -14 9 -29 25 -35 35 -8 17 -3 25 39 55 133 98
194 304 128 438 -63 129 -178 153 -264 54 -68 -78 -86 -140 -91 -306 -5 -163
4 -218 50 -317 91 -193 250 -208 424 -41 l62 60 49 -50 c56 -58 100 -72 166
-52 63 19 112 77 144 174 24 71 27 96 27 201 -1 108 -4 129 -32 209 -18 50
-32 91 -32 93 0 10 47 -24 117 -83 l78 -67 5 -181 c4 -147 8 -187 23 -213 57
-106 149 -98 272 22 31 30 60 55 63 55 4 0 17 -22 28 -49 16 -37 28 -50 50
-55 24 -6 33 -3 56 23 16 18 28 43 28 59 0 15 9 65 21 112 11 47 31 141 45
210 14 69 28 128 32 132 5 4 14 -64 20 -152 13 -158 26 -222 60 -289 35 -70
85 -71 164 -1 26 22 48 40 51 40 2 0 7 -28 11 -62 21 -205 59 -347 117 -440
94 -148 225 -62 251 165 13 115 4 325 -18 397 -9 30 -36 99 -61 153 -26 53
-44 99 -42 100 2 2 29 13 59 24 30 11 62 23 70 27 12 5 19 -10 33 -71 51 -212
166 -315 285 -254 51 26 77 56 107 126 56 126 57 359 1 480 -14 30 -21 57 -17
59 7 5 120 -81 172 -130 24 -23 27 -33 33 -145 9 -154 30 -276 54 -308 25 -34
76 -40 92 -11 12 23 42 229 60 420 12 129 22 162 34 113 29 -118 50 -168 88
-209 35 -38 46 -44 82 -44 23 0 55 9 74 20 37 23 38 23 46 -60 14 -135 53
-199 111 -184 33 8 46 38 68 154 37 191 68 341 76 362 5 14 11 -42 15 -150 10
-233 37 -332 90 -332 55 0 65 23 96 210 15 96 31 210 35 253 4 42 10 77 14 77
5 0 11 -39 15 -87 7 -99 32 -261 48 -313 17 -57 55 -100 87 -100 35 0 111 50
146 96 l27 35 34 -35 c37 -38 83 -52 138 -42 36 7 116 83 137 130 l12 25 29
-45 c38 -56 63 -74 105 -74 46 0 114 64 154 146 18 35 33 64 35 64 2 0 13 -18
24 -40 29 -57 84 -108 124 -115 48 -9 86 13 187 112 48 47 89 81 92 76 2 -4 8
-24 12 -43 19 -91 109 -118 197 -60 25 16 68 55 97 85 l52 55 32 -37 c42 -48
99 -73 167 -73 91 0 156 43 236 155 l20 29 22 -45 c41 -85 137 -108 257 -59
76 30 101 49 139 108 18 26 57 81 88 122 89 120 116 190 72 190 -8 0 -58 -40
-111 -89 l-98 -90 -13 67 c-7 37 -24 99 -37 137 -47 142 -46 137 -13 216 47
112 29 179 -47 179 -58 0 -90 -47 -156 -233 -53 -150 -88 -222 -163 -336 -62
-93 -110 -146 -154 -170 -93 -50 -162 74 -162 289 0 114 19 178 58 199 28 15
38 -2 46 -78 9 -98 48 -127 97 -75 21 23 24 34 23 108 0 71 -4 89 -28 129 -43
75 -129 107 -195 73 -36 -19 -97 -87 -114 -128 -40 -96 -56 -331 -29 -422 11
-37 9 -40 -30 -92 -40 -54 -80 -76 -100 -56 -30 30 -36 186 -16 444 13 183 8
208 -42 208 -34 0 -76 -23 -90 -50 -5 -9 -14 -106 -21 -216 -13 -229 -16 -237
-122 -350 -59 -64 -109 -91 -147 -79 -41 13 -71 86 -81 202 -6 60 -14 135 -19
168 -7 52 -5 70 18 137 l26 77 40 5 c214 27 217 27 228 52 8 16 8 37 2 62 l-9
37 -103 -3 c-56 -2 -102 0 -102 4 0 4 9 37 19 73 77 262 17 551 -114 551 -20
0 -39 -8 -53 -23z m95 -204 c14 -35 14 -48 -2 -157 -24 -165 -45 -240 -69
-244 -18 -4 -19 2 -13 164 7 163 18 235 39 262 17 20 28 14 45 -25z m-2870
-345 c10 -19 16 -54 16 -83 -1 -54 -39 -253 -78 -400 -13 -49 -29 -117 -36
-150 l-13 -60 -9 55 c-5 30 -6 120 -4 200 5 127 11 198 33 379 5 42 39 91 63
91 6 0 18 -15 28 -32z m4215 -458 c47 -178 -18 -279 -120 -185 l-37 34 60 116
c32 63 63 114 69 112 5 -2 18 -36 28 -77z m-1834 -101 c4 -212 -21 -339 -70
-355 -24 -7 -38 3 -53 40 -35 83 -20 287 27 381 24 48 68 97 83 92 6 -2 11
-62 13 -158z m-1941 -141 c33 -37 55 -116 60 -218 13 -225 -80 -348 -157 -210
-24 43 -25 53 -25 195 0 126 3 156 19 185 39 74 67 87 103 48z m-1909 -266
c28 -18 55 -116 60 -220 8 -163 -25 -272 -82 -272 -99 0 -142 299 -65 457 17
35 26 43 47 43 15 0 33 -4 40 -8z m-490 -64 c5 -7 15 -31 22 -54 11 -36 10
-46 -10 -92 -21 -48 -87 -122 -110 -122 -13 0 -13 154 0 202 10 36 50 78 75
78 7 0 17 -6 23 -12z m1886 -82 c29 -68 53 -153 86 -304 27 -123 25 -309 -3
-326 -29 -18 -42 12 -71 162 -22 113 -56 419 -56 510 0 39 16 24 44 -42z"/>
<path d="M6542 4684 c-51 -36 -69 -138 -35 -208 45 -96 188 -54 200 58 12 104
-25 166 -99 166 -24 0 -54 -7 -66 -16z"/>
<path d="M6315 4138 c-112 -15 -109 -14 -127 -62 -15 -41 -15 -54 3 -202 22
-183 30 -209 57 -195 22 11 126 122 146 155 9 13 16 73 20 169 6 136 5 147
-11 145 -10 0 -49 -5 -88 -10z"/>
<path d="M624 4129 c-135 -18 -282 -155 -381 -354 -160 -320 -169 -833 -19
-1120 17 -34 62 -91 102 -131 58 -59 80 -74 126 -88 67 -19 94 -19 173 -2 105
22 173 69 263 181 l33 40 -6 -60 c-20 -206 -54 -350 -92 -396 -29 -34 -66 -38
-133 -14 -94 33 -130 10 -130 -83 0 -64 9 -84 54 -111 46 -29 170 -30 225 -2
95 49 166 169 202 341 48 230 19 691 -50 804 -26 42 -70 61 -142 61 -65 0
-102 -17 -118 -52 -19 -42 -13 -73 23 -109 29 -29 41 -34 81 -34 43 0 47 -2
61 -35 7 -19 14 -54 14 -79 0 -42 -4 -47 -70 -109 -94 -87 -184 -127 -288
-127 -85 0 -151 52 -199 157 -49 106 -69 392 -43 593 39 298 187 542 344 565
43 7 50 5 77 -21 42 -40 63 -118 54 -200 -11 -102 25 -174 78 -160 55 13 79
139 54 271 -19 98 -45 160 -87 209 -54 61 -109 79 -206 65z"/>
<path d="M2214 4066 c-53 -23 -81 -120 -54 -191 29 -76 113 -99 172 -46 29 26
33 35 36 98 7 129 -53 183 -154 139z"/>
<path d="M6023 2700 c-40 -24 -53 -48 -53 -99 0 -70 58 -90 150 -50 27 11 57
19 67 17 47 -9 7 -78 -46 -78 -21 0 -30 -6 -34 -22 -9 -33 2 -41 46 -35 46 6
102 55 110 95 7 38 -12 81 -44 97 -38 20 -50 19 -113 -12 -54 -26 -86 -26 -86
1 0 22 28 46 54 46 22 0 52 41 39 54 -13 12 -59 5 -90 -14z"/>
<path d="M5752 2425 c-34 -30 -62 -58 -61 -62 3 -18 185 -213 198 -213 8 0 23
7 33 16 17 16 16 19 -23 61 l-40 44 34 38 c19 22 38 48 41 59 15 46 -37 112
-88 112 -23 0 -47 -14 -94 -55z m106 -17 c17 -17 15 -48 -5 -70 -22 -24 -35
-23 -64 8 l-24 26 30 24 c34 27 46 29 63 12z"/>
<path d="M5488 2217 l-27 -22 51 -148 c29 -81 55 -147 58 -147 3 0 16 9 28 20
18 17 20 25 11 48 -9 24 -7 29 18 49 33 27 41 28 71 7 21 -14 25 -14 49 2 l27
17 -34 26 c-19 14 -73 59 -121 99 -48 39 -91 72 -96 72 -4 -1 -20 -11 -35 -23z
m110 -110 l23 -24 -24 -16 c-23 -15 -24 -15 -39 34 -15 45 -15 48 0 40 10 -5
27 -20 40 -34z"/>
<path d="M2275 2127 c-2 -6 -23 -72 -46 -146 l-43 -133 25 -19 c13 -10 26 -19
29 -19 3 0 29 29 59 65 29 36 57 65 61 65 5 0 -3 -30 -16 -67 -30 -86 -30
-107 -1 -120 22 -10 31 -3 123 99 54 60 99 114 99 120 0 6 -10 17 -22 25 -20
13 -24 10 -84 -59 -35 -40 -59 -64 -55 -53 15 37 46 137 46 149 0 7 -11 19
-25 26 -24 13 -27 11 -81 -49 -31 -34 -58 -60 -61 -58 -2 3 5 26 15 53 35 89
36 109 7 122 -20 9 -27 9 -30 -1z"/>
<path d="M5243 2068 c-33 -16 -34 -31 -14 -121 11 -45 17 -84 15 -87 -3 -2
-33 27 -68 65 l-63 70 -37 -17 c-20 -10 -36 -22 -36 -27 0 -5 21 -49 47 -97
25 -49 55 -106 66 -126 20 -39 31 -45 57 -28 13 8 9 21 -23 85 -20 41 -33 75
-28 75 5 0 35 -29 68 -64 54 -58 61 -62 79 -49 18 13 18 16 -2 113 -12 55 -19
100 -18 100 2 0 20 -33 40 -72 47 -95 52 -100 75 -87 25 13 24 18 -10 86 -99
197 -104 203 -148 181z"/>
<path d="M2674 1893 c-47 -111 -95 -245 -90 -250 3 -4 45 -21 93 -39 86 -33
113 -32 113 0 0 13 -81 56 -105 56 -21 0 -26 15 -14 49 6 17 12 31 14 31 1 0
22 -7 45 -15 47 -16 55 -15 63 14 4 16 -4 23 -39 37 -46 18 -52 29 -31 58 12
17 16 17 73 -7 60 -26 74 -23 74 15 0 12 -24 26 -82 48 -46 18 -86 34 -90 36
-4 3 -15 -12 -24 -33z"/>
<path d="M4537 1785 c-27 -7 -50 -15 -52 -17 -4 -4 23 -112 56 -224 l21 -71
62 16 c33 9 71 22 83 29 49 27 66 108 40 183 -31 91 -95 116 -210 84z m115
-59 c23 -17 38 -59 38 -106 0 -31 -5 -43 -25 -56 -42 -27 -55 -16 -83 74 -22
71 -24 85 -11 93 20 13 61 11 81 -5z"/>
<path d="M3216 1738 c-36 -197 -46 -272 -36 -282 6 -6 51 -13 99 -14 86 -4 89
-3 110 23 25 32 27 72 6 102 -13 18 -13 23 -2 30 17 10 37 46 37 66 0 30 -36
57 -95 71 -120 29 -114 28 -119 4z m137 -68 c19 -18 2 -45 -31 -48 -42 -4 -61
11 -54 44 4 24 8 25 41 19 20 -4 40 -10 44 -15z m-44 -106 c29 -6 32 -10 29
-38 -3 -30 -5 -31 -48 -31 -44 0 -45 1 -41 30 5 49 7 49 60 39z"/>
<path d="M4167 1713 c-4 -7 40 -294 46 -300 4 -3 179 26 184 31 3 2 2 14 -2
26 -6 19 -13 21 -68 18 l-61 -3 -8 50 c-26 180 -28 185 -58 185 -16 0 -31 -3
-33 -7z"/>
<path d="M3577 1594 c-7 -124 4 -164 52 -188 34 -18 103 -21 132 -6 34 19 47
63 55 178 7 109 6 112 -14 112 -11 0 -27 3 -36 6 -14 5 -16 -7 -17 -87 -2
-127 -8 -151 -41 -163 -22 -8 -32 -6 -49 10 -20 18 -21 25 -15 132 l7 112 -34
0 -34 0 -6 -106z"/>
<path d="M3967 1558 c3 -79 6 -149 8 -155 3 -7 18 -13 34 -13 l30 0 -5 143
c-3 78 -7 148 -10 155 -2 6 -16 12 -32 12 l-29 0 4 -142z"/>
</g>
</svg>
