<?xml version="1.0" standalone="no"?>
<!DOCTYPE svg PUBLIC "-//W3C//DTD SVG 20010904//EN"
 "http://www.w3.org/TR/2001/REC-SVG-20010904/DTD/svg10.dtd">
<svg version="1.0" xmlns="http://www.w3.org/2000/svg"
 width="1200.000000pt" height="1200.000000pt" viewBox="0 0 1200.000000 1200.000000"
 preserveAspectRatio="xMidYMid meet">

<g transform="translate(0.000000,1200.000000) scale(0.100000,-0.100000)"
fill="#000000" stroke="none">
<path d="M5745 11993 c-1503 -64 -2919 -687 -3985 -1753 -945 -945 -1544
-2164 -1709 -3480 -35 -272 -45 -448 -45 -760 0 -312 10 -488 45 -760 165
-1316 764 -2536 1709 -3480 918 -918 2098 -1511 3375 -1695 305 -44 515 -58
860 -59 309 0 465 9 721 40 1052 126 2035 523 2889 1164 232 175 386 309 631
554 307 308 501 540 726 871 1020 1498 1304 3382 773 5125 -362 1186 -1113
2262 -2104 3014 -1122 850 -2488 1279 -3886 1219z m815 -147 c503 -56 858
-132 1290 -276 1397 -465 2557 -1425 3278 -2711 402 -718 641 -1492 724 -2349
20 -212 17 -873 -5 -1080 -107 -985 -413 -1850 -934 -2645 -957 -1459 -2510
-2418 -4231 -2615 -807 -92 -1609 -21 -2378 211 -1385 416 -2581 1347 -3333
2593 -697 1153 -975 2531 -780 3871 241 1665 1182 3140 2594 4068 792 520
1700 840 2640 931 245 24 237 24 625 21 248 -2 412 -9 510 -19z"/>
<path d="M6038 11440 c-29 -44 -56 -80 -59 -80 -3 0 -30 34 -60 75 l-53 75
-89 0 c-68 0 -86 -3 -81 -12 4 -7 54 -74 111 -148 l103 -136 0 -142 0 -142 75
0 75 0 0 143 0 142 100 145 c55 79 100 148 100 152 0 4 -38 8 -85 8 l-85 0
-52 -80z"/>
<path d="M5066 11434 c-104 -18 -190 -34 -191 -36 -2 -2 2 -29 8 -61 l11 -59
40 6 c23 4 51 9 62 12 26 7 22 21 64 -236 18 -107 36 -199 40 -203 9 -10 110
1 130 13 11 7 7 45 -19 207 -18 109 -35 210 -38 224 -5 26 -3 27 56 34 41 5
61 11 61 20 0 28 -22 115 -28 114 -4 -1 -92 -17 -196 -35z"/>
<path d="M4332 11258 c-34 -11 -60 -23 -58 -26 2 -4 41 -126 86 -272 45 -146
85 -269 90 -273 7 -8 118 19 132 32 4 4 -30 130 -77 280 -47 150 -85 275 -85
277 0 7 -24 2 -88 -18z"/>
<path d="M7562 11269 c-97 -19 -192 -95 -235 -189 -30 -66 -29 -198 2 -261 32
-68 81 -120 142 -154 50 -28 62 -30 154 -30 112 0 151 14 225 81 90 82 125
238 80 357 -52 139 -216 226 -368 196z m135 -180 c56 -27 93 -87 93 -153 0
-164 -205 -232 -305 -102 -49 64 -45 152 8 213 57 65 127 79 204 42z"/>
<path d="M3658 11001 c-73 -24 -114 -53 -138 -101 -41 -80 -13 -210 54 -252
28 -17 43 -18 142 -13 122 7 138 1 132 -51 -5 -45 -49 -69 -123 -69 l-65 0 -6
-41 c-3 -22 -4 -52 -2 -65 3 -23 6 -24 74 -23 111 2 215 57 254 134 54 105 -9
256 -115 276 -18 3 -65 1 -104 -6 -81 -13 -111 -4 -111 35 0 46 77 87 130 70
18 -6 20 -1 20 59 l0 66 -42 -1 c-24 0 -68 -8 -100 -18z"/>
<path d="M8356 10664 c-76 -140 -137 -257 -135 -258 9 -8 116 -66 121 -66 7 0
28 34 82 132 l36 66 71 -39 c40 -21 73 -39 75 -39 1 0 16 25 32 55 l30 56 -51
26 c-29 14 -62 32 -74 40 l-22 15 22 39 c12 21 27 39 32 39 6 0 42 -18 82 -39
79 -44 76 -44 111 26 17 31 19 43 9 51 -13 10 -274 152 -279 152 -2 0 -65
-115 -142 -256z"/>
<path d="M2871 10535 c-36 -16 -241 -157 -241 -165 0 -9 320 -455 333 -464 9
-5 32 5 70 31 l56 40 -64 92 c-36 50 -62 91 -60 91 3 0 56 -20 117 -45 62 -25
118 -45 126 -45 16 0 142 88 142 99 0 4 -61 27 -135 50 -74 23 -135 43 -135
44 0 2 9 20 20 42 26 50 25 88 -1 142 -42 87 -144 126 -228 88z m88 -161 c26
-34 26 -54 0 -88 -41 -53 -53 -51 -98 13 -22 33 -41 62 -41 65 0 12 57 35 87
36 22 0 37 -8 52 -26z"/>
<path d="M2100 9905 l-115 -115 207 -207 206 -206 121 114 121 113 -45 45 -45
46 -65 -65 -65 -65 -37 38 -38 37 63 63 62 63 -45 44 -45 44 -63 -62 -63 -62
-33 34 -33 34 20 29 c11 15 39 46 61 68 l41 39 -42 43 c-23 24 -45 43 -48 43
-3 0 -57 -52 -120 -115z"/>
<path d="M9695 9978 c-45 -16 -93 -55 -111 -91 -26 -49 -21 -95 20 -174 39
-78 45 -113 21 -133 -50 -42 -121 15 -143 114 l-7 34 -63 -20 c-61 -18 -64
-20 -57 -46 31 -128 153 -242 259 -242 61 0 124 35 157 88 41 64 39 116 -6
203 -37 72 -42 98 -23 117 34 34 109 -14 123 -79 7 -33 11 -33 88 0 l38 16
-31 62 c-62 125 -168 185 -265 151z"/>
<path d="M1621 9361 c-22 -33 -41 -63 -41 -68 0 -5 45 -78 100 -162 56 -84 99
-155 97 -158 -3 -2 -85 16 -183 41 -110 28 -183 41 -189 36 -16 -13 -88 -120
-84 -124 2 -1 141 -33 309 -70 l305 -67 22 27 c53 67 60 47 -119 337 -89 147
-166 267 -169 267 -3 0 -25 -27 -48 -59z"/>
<path d="M10122 9203 c-128 -93 -232 -171 -232 -174 0 -4 43 -65 95 -137 l96
-131 49 35 c28 20 50 38 50 40 0 2 -22 35 -50 73 -27 38 -50 71 -50 74 0 5 77
57 84 57 2 0 25 -29 51 -65 25 -36 49 -65 53 -65 4 0 29 16 55 36 l48 35 -29
37 c-15 20 -38 51 -50 69 l-22 31 39 31 40 32 51 -75 52 -74 50 35 c27 20 48
39 46 44 -5 16 -183 259 -189 259 -4 0 -110 -75 -237 -167z"/>
<path d="M10584 8553 c-70 -30 -113 -66 -153 -125 -71 -105 -76 -226 -14 -340
79 -146 266 -205 420 -134 72 33 134 94 166 164 33 72 30 189 -7 262 -35 70
-87 125 -151 158 -66 34 -198 41 -261 15z m204 -172 c40 -28 72 -89 72 -136 0
-106 -101 -191 -203 -171 -47 10 -102 50 -120 89 -39 82 -13 173 63 225 46 32
139 28 188 -7z"/>
<path d="M1062 8444 c-18 -37 -32 -67 -30 -69 9 -7 522 -255 523 -253 17 20
65 133 57 136 -5 1 -123 59 -262 127 -138 69 -253 125 -254 125 -1 0 -16 -30
-34 -66z"/>
<path d="M3210 8195 c-306 -45 -501 -171 -560 -362 -20 -64 -20 -90 -20 -1534
l0 -1469 60 0 60 0 2 1261 3 1260 63 -51 c35 -28 99 -67 143 -88 l78 -37 1
-1172 0 -1173 95 0 95 0 0 1140 c0 766 3 1140 10 1140 12 0 237 -48 263 -56
16 -5 17 -67 17 -1115 l0 -1109 135 0 135 0 0 1081 0 1081 35 -6 35 -7 0 616
0 615 -282 -1 c-168 -1 -318 -6 -368 -14z"/>
<path d="M4000 7580 l0 -630 28 -6 c15 -3 33 -7 40 -10 9 -3 12 -222 12 -1054
l0 -1050 185 0 185 0 0 1010 c0 678 3 1010 10 1010 17 0 241 -50 251 -56 5 -3
9 -418 9 -985 l0 -979 235 0 235 0 0 930 c0 888 1 930 18 930 17 0 188 -35
225 -46 16 -5 17 -57 17 -910 l0 -904 305 0 305 0 0 841 0 841 23 -5 c12 -3
57 -13 100 -22 l77 -17 0 -819 0 -819 375 0 375 0 0 741 c0 700 1 740 18 735
9 -3 45 -10 80 -17 l62 -12 0 -723 0 -724 425 0 425 0 0 630 0 629 -40 11 -40
11 0 1049 0 1050 -180 0 -180 0 0 -1010 c0 -555 -3 -1010 -7 -1010 -5 0 -65
12 -135 26 l-128 27 0 984 0 983 -240 0 -240 0 0 -930 c0 -755 -2 -930 -13
-930 -11 0 -137 26 -224 45 l-23 5 0 905 0 905 -300 0 -300 0 0 -840 c0 -516
-4 -840 -9 -840 -6 0 -40 7 -78 15 -37 9 -78 18 -90 20 l-23 5 0 820 0 820
-380 0 -380 0 0 -740 0 -740 -25 6 c-13 3 -48 11 -77 18 l-53 11 -3 723 -2
722 -425 0 -425 0 0 -630z"/>
<path d="M8230 7129 l0 -1081 -35 6 -35 7 0 -617 0 -616 323 5 c347 5 416 13
569 70 186 68 308 197 338 356 6 35 10 565 10 1502 l0 1449 -65 0 -65 0 0
-1260 c0 -693 -4 -1260 -8 -1260 -5 0 -17 10 -28 22 -25 28 -137 100 -196 126
l-48 21 0 1175 0 1176 -95 0 -95 0 0 -1140 c0 -957 -2 -1140 -14 -1140 -11 0
-113 21 -263 55 l-23 5 0 1110 0 1110 -135 0 -135 0 0 -1081z"/>
<path d="M797 7833 c-8 -32 -18 -65 -22 -74 -4 -12 25 -24 157 -64 90 -26 166
-51 170 -54 4 -3 -88 -43 -205 -87 l-211 -82 -24 -72 c-13 -39 -22 -73 -21
-75 2 -1 123 -37 269 -80 146 -42 272 -78 281 -81 12 -3 20 10 34 58 10 35 19
67 19 72 1 5 -75 32 -169 61 -95 30 -163 56 -155 59 8 4 104 41 214 84 l198
77 23 73 c13 39 21 72 19 72 -5 0 -529 159 -547 166 -9 3 -18 -12 -30 -53z"/>
<path d="M11070 7531 c-102 -26 -194 -52 -206 -58 -11 -7 -37 -30 -56 -51
-116 -129 -34 -387 135 -422 52 -10 66 -8 258 40 111 28 204 52 206 54 7 7
-29 136 -38 136 -4 0 -90 -20 -191 -45 -113 -28 -193 -43 -210 -40 -40 9 -78
59 -78 101 0 78 23 91 254 148 l171 42 -1 30 c-3 57 -24 114 -42 113 -9 -1
-100 -22 -202 -48z"/>
<path d="M535 6770 c-2 -3 -6 -37 -10 -76 l-7 -71 153 -12 c201 -16 246 -26
282 -63 26 -25 29 -34 24 -71 -9 -67 -41 -87 -135 -86 -42 0 -135 6 -207 13
-71 7 -132 11 -135 9 -5 -5 -18 -136 -14 -141 6 -9 394 -42 427 -37 95 14 150
69 183 180 19 68 14 145 -16 212 -20 47 -89 98 -145 109 -59 11 -396 40 -400
34z"/>
<path d="M11165 6537 c-143 -11 -261 -20 -261 -21 -3 -3 23 -326 27 -329 2 -2
31 -1 63 1 l59 4 -7 92 -6 92 227 18 c125 9 228 18 230 20 2 2 0 35 -3 75 l-7
71 -31 -1 c-17 -1 -148 -11 -291 -22z"/>
<path d="M1037 4592 c-26 -26 -47 -52 -47 -58 0 -5 23 -32 50 -59 l50 -49 55
54 55 54 -52 53 c-29 29 -55 53 -58 53 -3 0 -27 -22 -53 -48z"/>
<path d="M10852 4587 l-52 -53 55 -54 55 -54 55 54 55 54 -52 53 c-29 29 -55
53 -58 53 -3 0 -29 -24 -58 -53z"/>
<path d="M5605 3630 c-72 -23 -137 -105 -151 -189 -21 -132 106 -256 225 -221
19 5 36 8 38 7 1 -2 -33 -44 -77 -95 -44 -50 -80 -94 -80 -97 0 -3 38 -5 83
-5 l84 0 83 103 c101 124 133 188 138 278 6 95 -30 158 -113 202 -45 23 -178
33 -230 17z m151 -125 c28 -19 48 -69 40 -101 -11 -41 -53 -74 -95 -74 -88 1
-127 102 -64 165 30 29 86 34 119 10z"/>
<path d="M6732 3629 c-46 -14 -105 -76 -120 -127 -11 -37 -11 -47 7 -87 12
-27 30 -50 45 -57 33 -15 33 -20 -4 -36 -50 -23 -75 -68 -75 -137 0 -74 24
-113 93 -147 65 -32 179 -32 238 -1 83 44 118 116 94 196 -12 42 -61 97 -86
97 -22 0 -17 15 9 29 27 15 52 53 61 96 9 43 -29 113 -81 149 -47 33 -122 43
-181 25z m91 -100 c30 -16 37 -28 37 -66 0 -57 -63 -82 -107 -41 -30 28 -29
63 2 93 27 28 37 30 68 14z m24 -271 c67 -62 -18 -174 -90 -118 -36 29 -39
100 -5 124 31 22 68 20 95 -6z"/>
<path d="M5017 3613 c-4 -3 -7 -33 -7 -65 l0 -58 45 0 45 0 0 -230 0 -230 75
0 75 0 0 295 0 295 -113 0 c-63 0 -117 -3 -120 -7z"/>
<path d="M6120 3555 l0 -65 40 0 40 0 0 -230 0 -230 75 0 75 0 0 295 0 295
-115 0 -115 0 0 -65z"/>
<path d="M2276 3001 c-33 -33 -76 -55 -262 -132 -123 -51 -224 -95 -224 -99 0
-3 19 -25 43 -47 l42 -42 145 63 c80 35 146 62 148 61 1 -1 -25 -65 -58 -143
-33 -77 -60 -145 -60 -149 0 -5 20 -28 43 -51 l44 -43 89 218 c75 183 96 226
133 266 l45 48 -45 45 -45 44 -38 -39z"/>
<path d="M9472 2827 l-202 -202 42 -43 43 -42 157 157 158 158 202 -202 203
-203 -33 -32 -32 -33 -103 103 -103 102 -44 -45 -44 -45 102 -103 102 -102
-22 -23 -23 -22 -102 102 -103 103 -42 -43 -43 -42 103 -103 103 -103 -26 -24
c-14 -13 -25 -29 -25 -35 0 -6 17 -28 38 -48 l37 -37 238 238 237 237 -43 43
-43 43 -19 -21 c-19 -21 -20 -20 -265 225 l-245 245 -203 -203z"/>
<path d="M2518 2713 l-68 -67 -43 42 -43 42 -39 -40 -39 -40 42 -43 42 -42
-190 -190 c-105 -104 -190 -195 -190 -200 0 -13 72 -85 85 -85 14 0 605 592
605 606 0 13 -72 84 -86 84 -5 0 -39 -30 -76 -67z"/>
<path d="M3475 2170 c-3 -6 -21 -10 -40 -10 -90 0 -175 -80 -175 -165 0 -14
-5 -25 -11 -25 -6 0 -49 23 -96 51 -47 27 -86 49 -87 47 -13 -18 -46 -77 -46
-81 0 -3 56 -38 125 -78 69 -39 125 -75 125 -78 0 -4 -6 -16 -14 -26 -13 -18
-18 -16 -111 38 -54 32 -99 56 -100 55 -30 -47 -46 -81 -39 -88 5 -5 92 -56
194 -115 102 -58 188 -110 193 -114 4 -4 1 -15 -5 -24 -12 -16 -29 -8 -188 84
-96 55 -187 107 -202 115 l-26 14 -62 -106 c-34 -58 -58 -109 -54 -113 18 -16
485 -281 494 -281 5 0 19 18 30 39 15 30 17 41 7 49 -7 5 -96 57 -199 116
-104 60 -188 111 -188 114 1 18 20 34 34 29 9 -4 101 -56 205 -116 l188 -109
56 99 c31 53 58 103 59 109 2 6 -37 35 -86 63 -49 29 -91 57 -93 62 -2 6 2 19
9 28 12 15 24 11 135 -54 67 -39 127 -68 132 -65 5 3 18 22 30 41 l20 35 -80
46 -81 47 28 18 c71 46 97 164 54 239 -11 19 -23 42 -26 50 -7 20 -102 72
-109 60z m24 -136 c32 -40 28 -87 -11 -119 -25 -21 -38 -25 -62 -21 -40 8 -76
49 -76 87 0 72 105 109 149 53z"/>
<path d="M8650 2123 c-25 -14 -46 -27 -48 -29 -2 -1 56 -105 128 -230 98 -170
128 -229 118 -235 -7 -5 -88 -52 -181 -105 l-168 -96 27 -47 c15 -25 28 -47
30 -49 1 -2 81 42 178 97 96 56 179 101 183 101 4 0 31 -41 58 -90 28 -49 53
-90 56 -90 13 0 99 52 99 60 0 5 -58 109 -130 232 -71 123 -132 231 -135 240
-5 12 2 21 22 32 58 32 57 30 28 80 -15 25 -31 46 -35 46 -5 0 -25 -10 -45
-22 -42 -24 -35 -29 -91 70 -20 34 -39 62 -42 62 -4 0 -27 -12 -52 -27z"/>
<path d="M8497 1995 c-32 -19 -61 -35 -66 -35 -4 0 -13 12 -20 26 l-11 26 -48
-27 c-66 -38 -67 -41 -49 -69 17 -25 17 -25 -41 -57 -85 -48 -83 -44 -58 -89
24 -46 29 -47 74 -20 18 11 35 20 37 20 3 0 5 -23 5 -50 0 -63 27 -119 77
-157 33 -25 45 -28 113 -28 68 0 80 3 113 28 114 87 101 258 -24 320 l-50 26
30 16 c17 8 31 21 31 28 0 16 -38 77 -47 77 -5 -1 -34 -16 -66 -35z m64 -224
c32 -33 36 -58 14 -100 -24 -47 -83 -56 -129 -20 -20 16 -26 29 -26 60 0 83
83 118 141 60z"/>
<path d="M4460 1526 c-11 -45 -37 -85 -166 -252 l-153 -199 37 -11 c98 -29 82
-38 189 107 112 152 103 156 123 -48 7 -73 16 -136 19 -141 3 -4 32 -16 64
-24 56 -16 57 -16 57 3 0 11 -14 123 -30 249 -29 218 -30 232 -15 282 8 28 12
55 8 59 -8 6 -93 29 -111 29 -5 0 -15 -24 -22 -54z"/>
<path d="M7593 1552 c-29 -8 -53 -17 -53 -21 0 -3 11 -46 24 -94 12 -48 20
-89 17 -91 -3 -2 -18 -6 -32 -10 -26 -6 -27 -4 -49 84 -12 50 -25 92 -29 95
-4 2 -31 -3 -60 -11 -40 -12 -51 -20 -47 -32 35 -117 116 -435 113 -439 -7 -6
-179 -53 -197 -53 -21 0 -109 328 -91 340 7 4 37 13 67 19 31 7 58 19 60 26 3
8 0 33 -8 58 l-13 44 -132 -36 c-90 -24 -133 -41 -133 -50 0 -12 139 -543 143
-548 1 0 76 19 167 43 90 24 167 40 171 36 3 -4 20 -60 37 -126 17 -65 33
-120 35 -122 2 -3 27 1 56 8 33 7 51 17 51 26 0 8 -29 125 -66 259 -36 134
-63 247 -60 252 3 5 17 11 31 13 21 4 26 0 33 -26 5 -17 35 -130 67 -251 32
-121 61 -224 66 -229 9 -11 109 12 109 26 0 14 -209 790 -217 809 -7 15 -13
15 -60 1z"/>
<path d="M4840 1486 c0 -8 -210 -794 -217 -812 -2 -7 22 -18 59 -27 34 -9 63
-15 64 -14 1 1 47 173 103 382 55 209 105 395 110 413 9 30 8 34 -15 42 -35
14 -104 24 -104 16z"/>
<path d="M6210 1126 l0 -186 -195 0 -195 0 0 40 0 40 145 0 145 0 0 140 0 140
-210 0 -210 0 0 -55 0 -55 151 0 150 0 -3 -32 -3 -33 -147 -3 -148 -3 0 -139
0 -140 260 0 260 0 0 -55 0 -55 -155 0 -155 0 0 30 0 30 -60 0 -60 0 0 -170 0
-170 280 0 280 0 0 425 0 425 -27 0 c-16 0 -45 3 -65 6 l-38 7 0 -187z m0
-531 l0 -35 -155 0 -155 0 0 35 0 35 155 0 155 0 0 -35z"/>
</g>
</svg>
